<svg xmlns="http://www.w3.org/2000/svg" viewBox="0 0 610 406.98"><path d="M393.74 140.08H354a5.48 5.48 0 0 0-5.47 4.74l-16 101.68a3.15 3.15 0 0 0 3.28 3.64h20.39a3.6 3.6 0 0 0 3.64-3.28l4.37-28.79a5.52 5.52 0 0 1 5.47-4.74h12.39c26.24 0 41.18-12.76 45.19-37.54 1.82-10.93 0-19.68-5.1-25.51-5.1-6.56-14.94-10.2-28.43-10.2m4.74 37.17c-2.19 14.21-13.12 14.21-23.69 14.21H369l4.37-26.6a3.5 3.5 0 0 1 3.28-2.92h2.92c7.29 0 13.85 0 17.49 4 1.46 2.55 2.19 6.2 1.46 11.3" fill="#169bd8"/><path d="M111.3 140.08H71.94a5.48 5.48 0 0 0-5.47 4.74l-16 101.68a3.15 3.15 0 0 0 3.28 3.64h19a5.48 5.48 0 0 0 5.47-4.74l4.37-27.33a5.52 5.52 0 0 1 5.41-4.74h12.39c26.24 0 41.18-12.76 45.19-37.54 1.82-10.93 0-19.68-5.1-25.51-5.83-6.56-15.67-10.2-29.16-10.2m4.68 37.17c-2.19 14.21-13.12 14.21-23.69 14.21h-5.8l4.37-26.6a3.5 3.5 0 0 1 3.28-2.92h2.92c7.29 0 13.85 0 17.49 4 1.46 2.55 2.19 6.2 1.46 11.3M229.74 176.52h-19a3.45 3.45 0 0 0-3.28 2.92l-.73 5.47-1.46-1.82c-4-5.83-13.12-8-22.23-8-20.77 0-39 16-42.28 38.27-1.82 10.93.73 21.87 6.92 29.16 5.89 6.89 14.32 9.48 24.12 9.48a36.48 36.48 0 0 0 26.2-11l-.73 5.1a3.15 3.15 0 0 0 3.28 3.64h17.13a5.48 5.48 0 0 0 5.47-4.74l10.2-64.87a3.65 3.65 0 0 0-3.64-3.64M203.5 213.7a21.27 21.27 0 0 1-21.5 18.22c-5.47 0-9.84-1.82-12.76-5.1s-4-8-2.92-13.48a21.5 21.5 0 0 1 21.14-18.22c5.47 0 9.84 1.82 12.76 5.1s4 8 3.28 13.48" fill="#223a78"/><path d="M512.19 176.52h-19a3.45 3.45 0 0 0-3.28 2.92l-.73 5.47-1.46-1.82c-4-5.83-13.12-8-22.23-8-20.77 0-39 16-42.28 38.27-1.82 10.93.73 21.87 6.92 29.16 5.87 6.89 14.27 9.48 24.11 9.48a36.48 36.48 0 0 0 26.24-11l-.73 5.1a3.15 3.15 0 0 0 3.28 3.64h17.13a5.48 5.48 0 0 0 5.47-4.74l10.2-64.87a3.65 3.65 0 0 0-3.64-3.64m-26.24 37.21a21.27 21.27 0 0 1-21.5 18.22c-5.47 0-9.84-1.82-12.76-5.1s-4-8-2.92-13.48a21.5 21.5 0 0 1 21.14-18.22c5.47 0 9.84 1.82 12.76 5.1s4 8 3.28 13.48" fill="#169bd8"/><path d="M330.69 176.52h-19a4.42 4.42 0 0 0-4.37 2.55l-26.24 38.63-11.3-37.17a5.85 5.85 0 0 0-5.1-4h-19a3.42 3.42 0 0 0-3.28 4.37l21.14 61.59-19.54 27.7a3.23 3.23 0 0 0 2.55 5.1h19c1.82 0 3.64-.73 4.37-2.19l63.41-91.48c1.82-1.82.36-5.1-2.55-5.1" fill="#223a78"/><path d="M534.78 143l-16.4 103.5a3.15 3.15 0 0 0 3.28 3.64h16.4a5.48 5.48 0 0 0 5.47-4.74l16-101.68a3.15 3.15 0 0 0-3.28-3.64h-18.19a3 3 0 0 0-3.28 2.92" fill="#169bd8"/></svg>
