<svg xmlns="http://www.w3.org/2000/svg" viewBox="0 0 610 407"><style>.st0{fill:none;} .st1{fill:#FFF;} .st2{fill:#FF5F00;} .st3{fill:#EB001B;} .st4{fill:#F79E1B;}</style><g id="Layer_2"><g id="Layer_1-2"><path class="st0" d="M47.6 7.1h514v393.6h-514z"/><path class="st1" d="M174.8 361.6v-21c.5-6.9-4.7-12.8-11.6-13.3h-1.6c-4.7-.3-9.2 2-11.8 6-2.3-3.9-6.6-6.1-11.1-6-3.9-.2-7.6 1.7-9.8 5v-4.1h-7.3v33.5h7.4v-18.4c-.6-4.3 2.4-8.2 6.7-8.8.5-.1 1-.1 1.5-.1 4.8 0 7.3 3.2 7.3 8.8v18.6h7.4v-18.6c-.6-4.3 2.5-8.3 6.8-8.8.5-.1.9-.1 1.4-.1 5 0 7.4 3.2 7.4 8.8v18.6l7.3-.1zm108.8-33.4h-12V318h-7.4v10.2h-6.7v6.7h6.8v15.4c0 7.8 3 12.4 11.6 12.4 3.2 0 6.4-.9 9.1-2.6l-2.1-6.2c-2 1.2-4.2 1.8-6.4 1.9-3.5 0-4.8-2.2-4.8-5.6v-15.3h11.9v-6.7zm62.1-.9c-3.6-.1-7 1.8-8.8 4.9v-4.1h-7.2v33.5h7.3v-18.8c0-5.5 2.4-8.6 7-8.6 1.6 0 3.1.3 4.6.8l2.2-7c-1.7-.6-3.4-.9-5.2-.9l.1.2zm-93.9 3.5c-4.1-2.5-8.9-3.7-13.7-3.5-8.5 0-14 4.1-14 10.7 0 5.5 4.1 8.8 11.6 9.9l3.5.5c4 .6 5.9 1.6 5.9 3.5 0 2.6-2.7 4.1-7.6 4.1-4 .1-7.9-1.1-11.1-3.5l-3.5 5.7c4.2 3 9.3 4.5 14.5 4.3 9.7 0 15.3-4.6 15.3-10.9s-4.4-9-11.7-10l-3.5-.5c-3.2-.4-5.7-1.1-5.7-3.3s2.4-3.9 6.4-3.9c3.7 0 7.3 1 10.5 2.9l3.1-6zm195.1-3.5c-3.6-.1-7 1.8-8.8 4.9v-4.1h-7.2v33.5h7.3v-18.8c0-5.5 2.4-8.6 7-8.6 1.6 0 3.1.3 4.6.8l2.2-7c-1.7-.6-3.4-.9-5.2-.9l.1.2zm-93.8 17.5c-.3 9.3 6.9 17.2 16.3 17.5h1.6c4.4.2 8.7-1.2 12-4l-3.5-5.9c-2.5 1.9-5.6 3-8.8 3-5.9-.5-10.3-5.7-9.8-11.6.4-5.3 4.6-9.4 9.8-9.8 3.2 0 6.2 1.1 8.8 3l3.5-5.9c-3.4-2.8-7.7-4.2-12-4-9.3-.5-17.3 6.6-17.8 15.9v1.8zm68.2 0v-16.7H414v4.1c-2.5-3.2-6.4-5.1-10.5-4.9-9.7 0-17.5 7.8-17.5 17.5s7.8 17.5 17.5 17.5c4.1.2 8-1.7 10.5-4.9v4.1h7.3v-16.7zm-27.1 0c.3-5.6 5.1-9.8 10.7-9.5 5.6.3 9.8 5.1 9.5 10.7-.3 5.3-4.7 9.5-10 9.5-5.5.1-10.1-4.4-10.2-9.9-.1-.3 0-.5 0-.8zm-87.9-17.5c-9.7.1-17.4 8.1-17.3 17.8.1 9.7 8.1 17.4 17.8 17.3 5 .3 10-1.4 13.9-4.6l-3.5-5.4c-2.8 2.2-6.2 3.4-9.7 3.5-5 .4-9.4-3.2-10-8.2h24.9v-2.8c0-10.5-6.5-17.5-15.9-17.5l-.2-.1zm0 6.5c4.6-.1 8.4 3.5 8.5 8.1h-17.5c.3-4.7 4.2-8.3 8.9-8.1h.1zm182.4 11.1v-30.2h-7v17.5c-2.5-3.2-6.4-5.1-10.5-4.9-9.7 0-17.5 7.8-17.5 17.5s7.8 17.5 17.5 17.5c4.1.2 8-1.7 10.5-4.9v4.1h7v-16.6zm12.2 11.9c.5 0 .9.1 1.3.2.4.2.8.4 1.1.7.3.3.6.7.7 1.1.4.8.4 1.8 0 2.6-.2.4-.4.7-.7 1.1-.3.3-.7.5-1.1.7-.4.2-.9.3-1.3.3-1.4 0-2.6-.8-3.2-2-.4-.8-.4-1.8 0-2.6.2-.4.4-.7.7-1.1.3-.3.7-.5 1.1-.7.5-.2.9-.3 1.4-.2zm0 5.9c.3 0 .7-.1 1-.2.3-.1.6-.3.8-.6.9-1 .9-2.5 0-3.5-.2-.2-.5-.4-.8-.6-.3-.1-.7-.2-1-.2-.3 0-.7.1-1 .2-.3.1-.6.3-.8.6-.9 1-.9 2.5 0 3.5.2.2.5.4.8.6.4.2.7.2 1.1.2h-.1zm.2-4.2c.3 0 .6.1.9.3.2.2.3.5.3.7 0 .2-.1.5-.2.6-.2.2-.5.3-.7.3l1 1.2h-.8l-.9-1.2h-.3v1.2h-.7v-3.1h1.4zm-.8.6v.8H501.5v-.3-.3h-.4l-.8-.2zm-38.5-14.2c.3-5.6 5.1-9.8 10.7-9.5 5.6.3 9.8 5.1 9.5 10.7-.3 5.3-4.7 9.5-10 9.5-5.5.1-10.1-4.4-10.2-9.9v-.8zm-245.9 0v-16.7h-7.3v4.1c-2.5-3.2-6.4-5.1-10.5-4.9-9.7 0-17.5 7.8-17.5 17.5s7.8 17.5 17.5 17.5c4.1.2 8-1.7 10.5-4.9v4.1h7.3v-16.7zm-27.1 0c.3-5.6 5.1-9.8 10.7-9.5s9.8 5.1 9.5 10.7c-.3 5.3-4.7 9.5-10 9.5-5.5.1-10.1-4.3-10.2-9.9-.1-.2-.1-.5 0-.8z"/><g id="_Group_"><path class="st2" d="M249.4 73.1h110.3v198.2H249.4z"/><path id="_Path_" class="st3" d="M256.4 172.2c0-38.7 17.7-75.2 48.1-99.1-54.7-43-134-33.5-177 21.2s-33.5 134 21.2 177c45.7 35.9 110.1 35.9 155.8 0-30.4-23.9-48.1-60.4-48.1-99.1z"/><path class="st4" d="M508.5 172.2c0 69.6-56.4 126.1-126.1 126.1-28.3 0-55.7-9.5-77.9-27 54.7-43 64.2-122.3 21.2-177-6.2-7.9-13.3-15-21.2-21.2 54.7-43 134-33.5 177 21.2 17.5 22.2 27 49.6 27 77.9zM496.5 250.3v-4.1h1.6v-.8H494v.8h1.8v4.1h.7zm8.1 0v-4.9h-1.3l-1.5 3.5-1.5-3.5h-1.1v4.9h.9v-3.7l1.4 3.2h.9l1.4-3.2v3.7h.8z"/></g></g></g></svg>
