<svg xmlns="http://www.w3.org/2000/svg" viewBox="0 0 610 406.98"><path fill="#005098" d="M221.88 280.69l25.29-155.09h39.91L262.1 280.69h-40.22M407.45 129.25a101.31 101.31 0 0 0-36-6.4c-39.61 0-67.65 21-67.65 51.19-.3 22.24 19.81 34.74 35 42 15.54 7.62 21 12.49 20.72 19.2 0 10.36-12.49 15.24-24.07 15.24-16.15 0-24.68-2.44-37.78-8.23l-5.18-2.44-5.48 34.74c9.45 4.27 26.81 8.23 44.79 8.23 42 0 69.47-20.72 69.78-53 0-17.67-10.66-31.08-33.82-42-14-7.31-22.55-11.88-22.55-19.2 0-6.4 7.31-13.41 22.85-13.41a65.26 65.26 0 0 1 29.94 6.08l3.66 1.83 5.79-33.82M510.44 125.6h-31.08c-9.75 0-16.76 2.74-21 12.8L398.91 281h42s7-19.2 8.53-23.46H501c1.22 5.48 4.88 23.16 4.88 23.16H543l-32.6-155.1m-49.63 100.25c3.35-8.84 15.84-43.27 15.84-43.27-.3.3 3.35-9.14 5.18-14.93l2.74 13.41s7.62 37.17 9.14 44.79zM188.36 125.6l-39.31 106-4.26-21.6c-7.31-24.68-30.17-51.8-55.46-65.21l36 135.9h42.35l63.07-155.1h-42.39"/><path d="M112.79 125.6h-64.9l-.61 3.35c50.28 12.8 83.49 43.88 97.51 81.36l-14-71.61c-2.46-9.75-9.47-12.8-18-13.1z" fill="#f7a600"/><path d="M555.84 262.41a8.84 8.84 0 1 1-8.84 8.84 8.84 8.84 0 0 1 8.84-8.84zm0 16.45a7.48 7.48 0 0 0 7.31-7.62 7.29 7.29 0 0 0-7.31-7.62 7.62 7.62 0 0 0 0 15.24zm-3.35-12.19h4c.91 0 3 .3 3 2.44a2.41 2.41 0 0 1-1.52 2.13c1.22.3 1.22 1.22 1.22 2.13a3.92 3.92 0 0 0 .3 2.13h-1.83c-.3-.3-.3-.61-.3-2.13 0-.91 0-1.52-1.83-1.52h-1.22v3.66h-1.52v-8.84zm1.83 4h1.83a1.42 1.42 0 0 0 1.52-1.52c0-1.22-.61-1.22-1.83-1.22h-1.52z" fill="#005098"/></svg>
