<svg xmlns="http://www.w3.org/2000/svg" xmlns:xlink="http://www.w3.org/1999/xlink" viewBox="0 0 610 406.98"><defs><clipPath id="i"><path d="M437.2 76.51c-27.75-15.33-59.23-22.56-84.51-26a339.89 339.89 0 0 0-47.71-3c.06.08-5.33-.11-14.37.19a340.42 340.42 0 0 0-37.15 3.35 290.46 290.46 0 0 0-37.89 8.09 207.44 207.44 0 0 0-42.78 17.34v156.7c0 31.72 10.93 59.6 34.84 79.47 5.42 4.58 13.73 9.81 23.28 15.12 8.1 4.5 17.09 9.05 25.92 13.34 10.42 5 20.63 9.67 28.94 13.35 11.41 5 19.26 8.27 19.2 8.2s17.37-7.1 38-16.74c22-10.27 47.55-23.3 59.35-33.28 23.92-19.87 34.85-47.75 34.85-79.48V108.49v-32" fill="none"/></clipPath><linearGradient id="j" data-name="Unbenannter Verlauf 4" x1="168.58" y1="2798.44" x2="442.51" y2="2798.44" gradientTransform="matrix(1 0 0 -1 0 3002)" gradientUnits="userSpaceOnUse"><stop offset="0" stop-color="#ffd66b"/><stop offset=".28" stop-color="#fde2d2"/><stop offset=".49" stop-color="#e9aa70"/><stop offset="1" stop-color="#dc931d"/></linearGradient><clipPath id="k"><path d="M426.83 78.55c-38.68-4.07-81.3-5.13-123.72 3.32a275.19 275.19 0 0 0-36.74 10A238.21 238.21 0 0 0 228.24 109 222.21 222.21 0 0 0 183 142.75v90.53c0 29.43 10.6 54.19 31.29 71.38l38.18 19.76 29.17 15.11L305 351.68c15.58-6.5 72.36-31.44 90.81-47 20.69-17.19 31.26-42 31.28-71.38v-85.09q-.06-28.88-.17-57.66v-12" fill="none"/></clipPath><linearGradient id="l" data-name="Unbenannter Verlauf 2" x1="176.71" y1="2818.38" x2="294.19" y2="2791.63" gradientTransform="matrix(1 0 0 -1 0 3002)" gradientUnits="userSpaceOnUse"><stop offset="0" stop-color="#dbc9b8"/><stop offset=".31" stop-color="#775024"/><stop offset="1" stop-color="#4e2700"/></linearGradient><clipPath id="m"><path d="M390.09 236.64a10 10 0 0 0 2.61-7.16v-.33h-.86v.32a9.06 9.06 0 0 1-2.36 6.57c-1.84 1.88-4.67 2.85-8.17 2.85v.86c3.74 0 6.77-1.07 8.78-3.13" fill="none"/></clipPath><linearGradient id="n" data-name="Unbenannter Verlauf 3" x1="-386.26" y1="2601.67" x2="-380.88" y2="2601.67" gradientTransform="matrix(2.12 0 0 4.77 1198.78 -12183.03)" gradientUnits="userSpaceOnUse"><stop offset="0" stop-color="#492300"/><stop offset="1" stop-color="#492300"/></linearGradient><clipPath id="o"><path d="M420.58 230.07h.84c.41-14.68-3.48-26.25-24.08-38.68l-.44.73c20.24 12.2 24.07 23.54 23.68 37.91" fill="none"/></clipPath><linearGradient id="a" data-name="Unbenannter Verlauf 7" x1="-456.44" y1="2561.27" x2="-451.05" y2="2561.27" gradientTransform="matrix(4.56 0 0 9.99 2476.81 -25371.18)" gradientUnits="userSpaceOnUse"><stop offset="0" stop-color="#70491c"/><stop offset="1" stop-color="#9c7955"/></linearGradient><clipPath id="p"><path d="M357.53 256.8l-1.27-.74-.85.47 1.68 1a53.55 53.55 0 0 0 27.48 7.58v-.85a52.76 52.76 0 0 1-27-7.48m63.05-26.73h.84a36.94 36.94 0 0 1-9.15 23.56C405.61 261 396 265 384.57 265.13v-.85c11.22-.11 20.57-4 27.06-11.18a36.25 36.25 0 0 0 8.95-23.03z" fill="none"/></clipPath><linearGradient id="b" data-name="Unbenannter Verlauf 13" x1="-500.71" y1="2566.81" x2="-495.33" y2="2566.81" gradientTransform="matrix(12.27 0 0 9.34 6497 -23714.06)" gradientUnits="userSpaceOnUse"><stop offset="0" stop-color="#492300"/><stop offset="1" stop-color="#9c7955"/></linearGradient><clipPath id="q"><path d="M360.59 230.88c5.92 5.32 14.25 8.88 20.72 8.88v-.86c-6.19 0-14.47-3.55-20.15-8.65l-5.66-5.09.84 1.9 4.25 3.82" fill="none"/></clipPath><linearGradient id="r" data-name="Unbenannter Verlauf 6" x1="-466.76" y1="2591.48" x2="-461.38" y2="2591.48" gradientTransform="matrix(4.8 0 0 5.51 2594.13 -14053.09)" gradientUnits="userSpaceOnUse"><stop offset="0" stop-color="#663f0f"/><stop offset="1" stop-color="#492300"/></linearGradient><clipPath id="s"><path d="M395.06 191l1.84 1.11.44-.73-1.85-1.11c-8.07-4.8-11.93-7.37-11.81-13.1h-.86c-.13 6.2 4.1 9 12.23 13.85" fill="none"/></clipPath><linearGradient id="t" x1="-634.29" y1="2472.26" x2="-628.91" y2="2472.26" gradientTransform="matrix(-2.7 0 0 -5.58 -1312.77 13980.38)" xlink:href="#a"/><clipPath id="u"><path d="M220.11 149.88c-.12 25.07-.16 50.38-.11 75.2h.85c0-24.82 0-50.13.11-75.19v-3.46l-.84.86v2.59" fill="none"/></clipPath><linearGradient id="v" data-name="Unbenannter Verlauf 8" x1="-546.03" y1="2580.62" x2="-540.65" y2="2580.62" gradientTransform="matrix(0 -14.62 2.99 0 -7497.41 -7755.36)" gradientUnits="userSpaceOnUse"><stop offset="0" stop-color="#9c7955"/><stop offset="1" stop-color="#af906f"/></linearGradient><clipPath id="w"><path d="M229.71 239.19v-.86c-2.41 0-8.84-.06-8.87-13.26H220c0 14 7.32 14.09 9.72 14.11m0 0v-.86a18.59 18.59 0 0 0 7.65-1.37l.85.53a18.84 18.84 0 0 1-8.51 1.71z" fill="none"/></clipPath><linearGradient id="x" data-name="Unbenannter Verlauf 9" x1="-573.22" y1="2463.57" x2="-567.84" y2="2463.57" gradientTransform="matrix(-3.39 0 0 -5.43 -1703.8 13602.18)" gradientUnits="userSpaceOnUse"><stop offset="0" stop-color="#532d00"/><stop offset="1" stop-color="#9c7955"/></linearGradient><clipPath id="y"><path d="M265.79 254.64c-9.55 6.48-22.3 9.82-36.86 9.68v.85c14.74.13 27.67-3.26 37.35-9.84l1.5-1-.85-.45-1.13.78m-64.62-.83C195 247 192 237 192 223.94h-.85c0 13.26 3.15 23.5 9.43 30.43s15.94 10.67 28.38 10.8v-.85c-12.22-.12-21.56-3.66-27.79-10.51zm-10.05-107l.85.83v76.3h-.85z" fill="none"/></clipPath><linearGradient id="z" data-name="Unbenannter Verlauf 10" x1="-513.13" y1="2541.23" x2="-507.75" y2="2541.23" gradientTransform="matrix(14.24 0 0 24.82 7500.53 -62869.12)" gradientUnits="userSpaceOnUse"><stop offset="0" stop-color="#815b33"/><stop offset="1" stop-color="#9c7955"/></linearGradient><clipPath id="A"><path d="M379.47 213.78l-.44.74c9.94 5.91 12.7 9 12.81 14.65h.86c-.13-6-3-9.26-13.22-15.37m0 0l-.44.74c-9.75-5.79-16.05-11.34-19.85-17.48-3.28-5.35-4.69-11-4.73-19h.85c.04 13.58 4.01 23.79 24.16 35.72z" fill="none"/></clipPath><linearGradient id="B" data-name="Unbenannter Verlauf 11" x1="-485" y1="2554.53" x2="-479.62" y2="2554.53" gradientTransform="matrix(7.11 0 0 12.3 3801.2 -31223.81)" gradientUnits="userSpaceOnUse"><stop offset="0" stop-color="#492300"/><stop offset=".5" stop-color="#9c7955"/><stop offset="1" stop-color="#492300"/></linearGradient><clipPath id="C"><path d="M319.43 231.28c-2.76 5.26-6.65 7.71-12.27 7.71v.86c6 0 10.08-2.61 13-8.17 3.13-5.94 4.69-15.32 4.7-27.86H324c0 12.4-1.56 21.64-4.61 27.45M307.16 239v.86a19.33 19.33 0 0 1-5.16-.74l.85-.67a17.42 17.42 0 0 0 4.31.55z" fill="none"/></clipPath><linearGradient id="d" data-name="Unbenannter Verlauf 18" x1="-579.52" y1="2492.05" x2="-574.14" y2="2492.05" gradientTransform="matrix(-4.25 0 0 -9.49 -2138.81 23883.38)" gradientUnits="userSpaceOnUse"><stop offset="0" stop-color="#492300"/><stop offset="1" stop-color="#70491c"/></linearGradient><clipPath id="D"><path d="M307.87 168.65v.85c5.73 0 9.43 2.16 11.94 7 2.84 5.46 4.22 14.4 4.23 27.32h.85c0-13.06-1.42-22.11-4.32-27.71-2.68-5.18-6.6-7.47-12.7-7.47m-5 1.53l-.85-.63a20 20 0 0 1 5.85-.9v.85a19.32 19.32 0 0 0-5.01.68z" fill="none"/></clipPath><linearGradient id="E" x1="-579.52" y1="2494.55" x2="-574.14" y2="2494.55" gradientTransform="matrix(-4.25 0 0 -9.34 -2138.81 23479.37)" xlink:href="#b"/><clipPath id="F"><path d="M274.34 153.36c9.16-6 20.09-8.9 33.36-8.9v-.85c-13.45 0-24.52 2.94-33.84 9l-1.54 1 .85.47 1.16-.75m33.36-9.75v.85c14.6 0 26.59 5.58 34.67 16.11 7.77 10.12 11.88 24.86 11.88 42.62h.86c0-18-4.18-32.88-12.05-43.15-8.24-10.71-20.46-16.39-35.35-16.4zm-5.68 120l.85 1a50.2 50.2 0 0 0 7.31.5v-.86a45.3 45.3 0 0 1-8.17-.64zm52.22-60.39h.86c0 18-4 33.31-11.49 44.22-8 11.56-19.54 17.68-33.44 17.68v-.86c13.61 0 24.93-6 32.74-17.32 7.42-10.75 11.35-25.91 11.35-43.72z" fill="none"/></clipPath><linearGradient id="c" data-name="Unbenannter Verlauf 15" x1="-509.52" y1="2540.89" x2="-504.14" y2="2540.89" gradientTransform="matrix(15.38 0 0 25.37 8110.11 -64269.98)" gradientUnits="userSpaceOnUse"><stop offset="0" stop-color="#3e1700"/><stop offset="1" stop-color="#9c7955"/></linearGradient><clipPath id="G"><path d="M412.67 177.53c-4-4.29-11.08-8.91-18.78-9v.85c7.44.13 14.27 4.62 18.19 8.78l5.9 6.25-.87-2.14-4.42-4.69m-18.78-9v.85a12.38 12.38 0 0 0-7.24 1.81c-1.93 1.31-2.88 3.31-3 6.07h-.86c.19-8.15 7.82-8.88 11.09-8.82z" fill="none"/></clipPath><linearGradient id="H" x1="-571.23" y1="2475.18" x2="-565.85" y2="2475.18" gradientTransform="matrix(-6.53 0 0 -5.76 -3311.63 14436.63)" xlink:href="#c"/><clipPath id="I"><path d="M354.44 177.83v.17h.85v-.22a31.16 31.16 0 0 1 10.78-24.08 36.56 36.56 0 0 1 23-8.82v-.85a37.51 37.51 0 0 0-23.62 9 32.38 32.38 0 0 0-11.05 24.73m34.67-32.92v-.85c14.11-.27 23.29 5.3 27.5 8.66l1.27 1-.85.42-1-.77c-4.04-3.21-12.99-8.66-26.87-8.39z" fill="none"/></clipPath><linearGradient id="J" x1="-499.9" y1="2559.83" x2="-494.52" y2="2559.83" gradientTransform="matrix(11.79 0 0 9.16 6247.53 -23298.16)" xlink:href="#d"/><clipPath id="K"><path d="M303.79 85.22c35-7 74.13-8.13 119.65-3.58l.85-.76c-45.92-4.66-85.42-3.52-120.66 3.51-46.87 9.39-86.59 29.4-118.1 59.49l.86.37c31.35-29.83 70.84-49.69 117.41-59" fill="none"/></clipPath><linearGradient id="L" data-name="Unbenannter Verlauf 17" x1="-519.59" y1="2544.22" x2="-514.21" y2="2544.22" gradientTransform="matrix(44.37 0 0 15.44 23239.93 -39177.85)" gradientUnits="userSpaceOnUse"><stop offset="0" stop-color="#8c6741"/><stop offset="1" stop-color="#9c7955"/></linearGradient><clipPath id="M"><path d="M185.47 233.28c0 28.92 10.52 52.93 30.36 69.41C232.83 317 285 340.51 305 348.9v-.9c-20.19-8.49-71.78-31.72-88.62-45.94-19.64-16.31-30-40.1-30.06-68.75v-28c0-19.9 0-40.34.07-61l-.86-.37c0 20.83-.06 41.38-.06 61.41v28" fill="none"/></clipPath><linearGradient id="N" x1="-532.68" y1="2519.17" x2="-527.3" y2="2519.17" gradientTransform="matrix(-22.21 0 0 -40.9 -11528.09 103286.6)" xlink:href="#d"/><clipPath id="O"><path d="M207.65 312.64c-23.9-19.87-34.83-47.75-34.83-79.48V76.49l-1.71-1v157.67c0 16.4 2.89 31.49 8.58 44.87A94.64 94.64 0 0 0 206.57 314c11.94 10.1 37.86 23.24 57.51 32.48 11.24 5.29 21.52 9.83 28.16 12.7 4 1.72 10.94 4.62 12.74 5.37v-1.85c.21.18-74.48-30.66-97.34-50" fill="none"/></clipPath><linearGradient id="P" data-name="Unbenannter Verlauf 19" x1="-517.79" y1="2534.01" x2="-512.41" y2="2534.01" gradientTransform="matrix(24.88 0 0 56.51 13054.32 -142971)" gradientUnits="userSpaceOnUse"><stop offset="0" stop-color="#ffd568"/><stop offset=".84" stop-color="#a36d12"/><stop offset="1" stop-color="#905800"/></linearGradient><clipPath id="Q"><path d="M380.28 177.14h1.7c.22-9.05 9.19-9.59 11.92-9.55v-1.69c-6.58-.13-13.46 2.78-13.66 11.2" fill="none"/></clipPath><linearGradient id="f" data-name="Unbenannter Verlauf 44" x1="-409.29" y1="2589.12" x2="-403.91" y2="2589.12" gradientTransform="matrix(2.54 0 0 4.91 1419.69 -12550.67)" gradientUnits="userSpaceOnUse"><stop offset="0" stop-color="#905800"/><stop offset="1" stop-color="#905800"/></linearGradient><clipPath id="R"><path d="M389.17 147.46v-1.71a35.68 35.68 0 0 0-22.52 8.62 30.31 30.31 0 0 0-10.48 23.44v.19h1.71c-.13-19.18 16.06-30.26 31.3-30.55" fill="none"/></clipPath><linearGradient id="S" data-name="Unbenannter Verlauf 21" x1="-478.85" y1="2561.25" x2="-473.47" y2="2561.25" gradientTransform="matrix(6.14 0 0 8.8 3294.31 -22370.68)" gradientUnits="userSpaceOnUse"><stop offset="0" stop-color="#efcb95"/><stop offset="1" stop-color="#e2ab53"/></linearGradient><clipPath id="T"><path d="M393.94 165.94v1.69c8 .14 15.24 4.91 19.4 9.31l2.95 3.13-1.71-4.3c-4.76-5.06-12.49-9.71-20.59-9.84" fill="none"/></clipPath><linearGradient id="U" data-name="Unbenannter Verlauf 22" x1="-450.6" y1="2583.57" x2="-445.22" y2="2583.57" gradientTransform="matrix(4.15 0 0 5.43 2265.16 -13847.24)" gradientUnits="userSpaceOnUse"><stop offset="0" stop-color="#905800"/><stop offset=".58" stop-color="#bf8934"/><stop offset="1" stop-color="#e4af5d"/></linearGradient><clipPath id="V"><path d="M414.49 155.38l1.69-.82-.63-.51c-4-3.21-12.82-8.55-26.4-8.29v1.71c12.78-.24 21.29 4.71 25.32 7.92" fill="none"/></clipPath><linearGradient id="W" data-name="Unbenannter Verlauf 23" x1="-463.81" y1="2589.07" x2="-458.43" y2="2589.07" gradientTransform="matrix(5.02 0 0 4.64 2718.61 -11854.56)" gradientUnits="userSpaceOnUse"><stop offset="0" stop-color="#e2ab53"/><stop offset="1" stop-color="#c27913"/></linearGradient><clipPath id="X"><path d="M395.59 194.35l.88-1.47-1.85-1.11c-7.71-4.59-12.79-7.6-12.63-14.59h-1.7c-.2 8.61 6.7 12 15.31 17.21" fill="none"/></clipPath><linearGradient id="Y" data-name="Unbenannter Verlauf 24" x1="-622.24" y1="2578.3" x2="-616.86" y2="2578.3" gradientTransform="matrix(0 -3.2 5.84 0 -14681.12 -1795.29)" gradientUnits="userSpaceOnUse"><stop offset="0" stop-color="#ddac72"/><stop offset="1" stop-color="#905800"/></linearGradient><clipPath id="Z"><path d="M393.54 229.13h1.7c-.16-7.42-4.24-11.43-14.48-17.5l-.86 1.46c10.45 6.2 13.5 9.8 13.64 16.07" fill="none"/></clipPath><linearGradient id="e" data-name="Unbenannter Verlauf 28" x1="-627.58" y1="2471.86" x2="-622.2" y2="2471.86" gradientTransform="matrix(-2.85 0 0 -6.06 -1394.59 15194.88)" gradientUnits="userSpaceOnUse"><stop offset="0" stop-color="#eabd79"/><stop offset="1" stop-color="#c27913"/></linearGradient><clipPath id="aa"><path d="M358.82 254.62l-1.7 1 .84.49a52 52 0 0 0 26.61 7.36v-1.71a50.41 50.41 0 0 1-25.73-7.11" fill="none"/></clipPath><linearGradient id="g" data-name="Unbenannter Verlauf 43" x1="-469.83" y1="2611.43" x2="-464.44" y2="2611.43" gradientTransform="matrix(5.1 0 0 4.45 2753.37 -11373.02)" gradientUnits="userSpaceOnUse"><stop offset="0" stop-color="#c27913"/><stop offset=".85" stop-color="#985d03"/><stop offset="1" stop-color="#905800"/></linearGradient><clipPath id="ab"><path d="M357.86 178h-1.71c.06 13.29 4 23.3 23.75 35l.86-1.46c-19.31-11.45-22.86-20.93-22.9-33.59" fill="none"/></clipPath><linearGradient id="ac" data-name="Unbenannter Verlauf 27" x1="-463.96" y1="2562.35" x2="-458.58" y2="2562.35" gradientTransform="matrix(4.58 0 0 9.31 2478.88 -23665.11)" gradientUnits="userSpaceOnUse"><stop offset="0" stop-color="#efcb95"/><stop offset="1" stop-color="#c27913"/></linearGradient><clipPath id="ad"><path d="M381.31 242.32v-1.7c-6.67 0-15.22-3.65-21.3-9.11l-2.82-2.51 1.69 3.8c6 5.42 15 9.54 22.43 9.54" fill="none"/></clipPath><linearGradient id="ae" x1="-586.84" y1="2461.23" x2="-581.46" y2="2461.23" gradientTransform="matrix(-4.48 0 0 -5.28 -2248.7 13231.2)" xlink:href="#e"/><clipPath id="af"><path d="M384.55 261.73v1.71c23.53-.26 34.61-17 35.15-33.39L418 230c-.5 15-10.47 31.52-33.48 31.76" fill="none"/></clipPath><linearGradient id="ag" data-name="Unbenannter Verlauf 29" x1="-477.97" y1="2568.09" x2="-472.59" y2="2568.09" gradientTransform="matrix(6.54 0 0 9.02 3508.18 -22912.34)" gradientUnits="userSpaceOnUse"><stop offset="0" stop-color="#905800"/><stop offset="1" stop-color="#9a6419"/></linearGradient><clipPath id="ah"><path d="M395.25 229.1h-1.7v.35a10.82 10.82 0 0 1-2.86 7.75c-2.16 2.21-5.41 3.38-9.38 3.38v1.7c8.52 0 14.11-5 13.94-13.22" fill="none"/></clipPath><linearGradient id="ai" data-name="Unbenannter Verlauf 30" x1="-411.2" y1="2595.07" x2="-405.82" y2="2595.07" gradientTransform="matrix(2.59 0 0 5.26 1446.68 -13407.85)" gradientUnits="userSpaceOnUse"><stop offset="0" stop-color="#eabd79"/><stop offset="1" stop-color="#eabd79"/></linearGradient><clipPath id="aj"><path d="M418 230l1.69.07c.22-8.22-1-14-4-19.48-3.55-6.3-9.66-11.93-19.21-17.69l-.88 1.47C414.9 206 418.4 216.3 418 230" fill="none"/></clipPath><linearGradient id="ak" data-name="Unbenannter Verlauf 31" x1="-476.49" y1="2485.7" x2="-471.11" y2="2485.7" gradientTransform="matrix(0 6.91 -7.33 0 18616.47 3483.18)" gradientUnits="userSpaceOnUse"><stop offset="0" stop-color="#ddac72"/><stop offset="1" stop-color="#9a6419"/></linearGradient><clipPath id="al"><path d="M307.87 167.79c6.37 0 10.65 2.52 13.46 7.94 3 5.71 4.4 14.91 4.4 28.11h1.71c0-26.71-5.77-37.73-19.58-37.73v1.69" fill="none"/></clipPath><linearGradient id="am" data-name="Unbenannter Verlauf 32" x1="-569.08" y1="2564.74" x2="-563.7" y2="2564.74" gradientTransform="matrix(0 -7.01 6.44 0 -16192.61 -3786.75)" gradientUnits="userSpaceOnUse"><stop offset="0" stop-color="#eabd79"/><stop offset="1" stop-color="#905800"/></linearGradient><clipPath id="an"><path d="M307.87 167.79v-1.69a21 21 0 0 0-8.42 1.71l1.71 1.13a20.56 20.56 0 0 1 6.72-1.15" fill="none"/></clipPath><linearGradient id="ao" x1="-380.85" y1="2617.27" x2="-375.46" y2="2617.27" gradientTransform="matrix(1.57 0 0 3.33 895.51 -8543.01)" xlink:href="#f"/><clipPath id="ap"><path d="M310.18 261.68v1.72c13.31 0 24.39-5.88 32-17 7.31-10.6 11.17-25.56 11.17-43.24h-1.7c0 34.75-15.18 58.47-41.52 58.49" fill="none"/></clipPath><linearGradient id="aq" x1="-493.81" y1="2553.07" x2="-488.43" y2="2553.07" gradientTransform="matrix(8.03 0 0 13.99 4276.25 -35480.03)" xlink:href="#f"/><clipPath id="ar"><path d="M274.23 309.65v1.69l1.7-1.7c-.26-50.33-.32-102.73-.22-154.14l-1.69-.92v.92c-.11 51.88 0 103.76.22 154.15" fill="none"/></clipPath><linearGradient id="as" data-name="Unbenannter Verlauf 35" x1="-512.66" y1="2464.52" x2="-507.28" y2="2464.52" gradientTransform="matrix(0 29.13 -3.18 0 8105.68 15089.87)" gradientUnits="userSpaceOnUse"><stop offset="0" stop-color="#e0b27c"/><stop offset="1" stop-color="#c27913"/></linearGradient><clipPath id="at"><path d="M301.15 168.93l-1.71-1.13v73.17l1.7-1.21v-70.83" fill="none"/></clipPath><linearGradient id="au" x1="176.42" y1="2547.95" x2="181.8" y2="2547.95" gradientTransform="matrix(.32 0 0 16.4 243.48 -41575.33)" xlink:href="#f"/><clipPath id="av"><path d="M351.7 203.19h1.7c0-17.58-4-32.13-11.7-42.11-7.91-10.3-19.66-15.75-34-15.76V147c28.38 0 44 21.51 44 56.17" fill="none"/></clipPath><linearGradient id="aw" data-name="Unbenannter Verlauf 37" x1="-495.6" y1="2550.32" x2="-490.22" y2="2550.32" gradientTransform="matrix(8.49 0 0 13.56 4516.52 -34398.16)" gradientUnits="userSpaceOnUse"><stop offset="0" stop-color="#edc68c"/><stop offset="1" stop-color="#905800"/></linearGradient><clipPath id="ax"><path d="M307.7 147v-1.71c-13.1 0-23.87 2.86-32.91 8.75l-.78.5 1.69.92c8.59-5.6 19-8.47 32-8.47" fill="none"/></clipPath><linearGradient id="ay" data-name="Unbenannter Verlauf 38" x1="-490.39" y1="2588.34" x2="-485.01" y2="2588.34" gradientTransform="matrix(6.26 0 0 4.69 3343.35 -11995.37)" gradientUnits="userSpaceOnUse"><stop offset="0" stop-color="#ffecc0"/><stop offset=".13" stop-color="#fde7b9"/><stop offset="1" stop-color="#edc68c"/></linearGradient><clipPath id="az"><path d="M299.46 260.36l1.71 2.18a43.73 43.73 0 0 0 9 .86v-1.72a37.24 37.24 0 0 1-10.72-1.32" fill="none"/></clipPath><linearGradient id="aA" data-name="Unbenannter Verlauf 39" x1="-638.18" y1="2416.88" x2="-632.8" y2="2416.88" gradientTransform="matrix(-1.99 0 0 -3.36 -961.08 8393.95)" gradientUnits="userSpaceOnUse"><stop offset="0" stop-color="#905800"/><stop offset="1" stop-color="#c27913"/></linearGradient><clipPath id="aB"><path d="M299.5 309.69l1.72 1.72v-1.72-47.15l-1.71-2.18v49.33" fill="none"/></clipPath><linearGradient id="aC" x1="159.67" y1="2560.02" x2="165.05" y2="2560.02" gradientTransform="matrix(.32 0 0 12.29 247.59 -31169.13)" xlink:href="#f"/><clipPath id="aD"><path d="M325.73 203.83h1.71c0 26-6.56 38.58-20.27 38.59v-1.72c6.22 0 10.73-2.82 13.77-8.62 3.19-6.07 4.79-15.56 4.79-28.25" fill="none"/></clipPath><linearGradient id="aE" data-name="Unbenannter Verlauf 41" x1="-457.8" y1="2562.34" x2="-452.42" y2="2562.34" gradientTransform="matrix(3.53 0 0 9.97 1923.12 -25324.91)" gradientUnits="userSpaceOnUse"><stop offset="0" stop-color="#ffe4a2"/><stop offset=".1" stop-color="#ffe4a2"/><stop offset=".6" stop-color="#f7e4ca"/><stop offset="1" stop-color="#eabd79"/></linearGradient><clipPath id="aF"><path d="M240.87 149.66l-1.71-1.7v1.68c-.08 18.38-.13 37-.13 55.54q0 16.44.06 32.82l1.69 1c-.08-29.75 0-59.68.09-89.29" fill="none"/></clipPath><linearGradient id="aG" data-name="Unbenannter Verlauf 42" x1="-505.87" y1="2472.87" x2="-500.49" y2="2472.87" gradientTransform="matrix(0 16.91 -3.14 0 8010.94 8702.15)" gradientUnits="userSpaceOnUse"><stop offset="0" stop-color="#db9a28"/><stop offset="1" stop-color="#c27913"/></linearGradient><clipPath id="aH"><path d="M264.37 252.51l1.71.9v-.9c-.09-34.43-.11-69.08 0-103v-1.71l-1.71 1.71c-.13 34.16-.13 68.78 0 103" fill="none"/></clipPath><linearGradient id="aI" x1="-508.18" y1="2466.32" x2="-502.8" y2="2466.32" gradientTransform="matrix(0 19.63 -3.14 0 8013.11 10121.87)" xlink:href="#g"/><clipPath id="aJ"><path d="M229 261.76v1.71c14.4.14 27-3.15 36.38-9.54l.75-.51-1.71-.9c-9 6.13-21.12 9.38-35.4 9.25" fill="none"/></clipPath><linearGradient id="aK" x1="-498.69" y1="2604.28" x2="-493.31" y2="2604.28" gradientTransform="matrix(6.9 0 0 4.86 3670.01 -12401.33)" xlink:href="#f"/><clipPath id="aL"><path d="M229.7 241.73c4.75 0 8.54-1 11.08-2.78l-1.69-1a19 19 0 0 1-9.38 2v1.69m0 0V240c-4.07 0-6.9-1.65-8.62-4.94-1.28-2.45-1.93-5.82-1.94-10h-1.7c0 6.69 1.55 16.6 12.25 16.67zm-12.14-91.85l1.71-1.72v1.72c-.11 25.07-.16 50.38-.12 75.2h-1.7c-.07-24.99-.02-50.12.09-75.11z" fill="none"/></clipPath><linearGradient id="aM" data-name="Unbenannter Verlauf 45" x1="217.42" y1="2807.06" x2="240.78" y2="2807.06" gradientTransform="matrix(1 0 0 -1 0 3002)" gradientUnits="userSpaceOnUse"><stop offset="0" stop-color="#ce8e3e"/><stop offset="1" stop-color="#ffe7b0"/></linearGradient><clipPath id="aN"><path d="M194.54 223.94h-1.71c0 12.82 3 22.69 9 29.29s15.2 10.11 27.14 10.24v-1.71c-23.07-.24-34.39-13-34.43-37.82" fill="none"/></clipPath><linearGradient id="h" data-name="Unbenannter Verlauf 47" x1="-502.42" y1="2563.4" x2="-497.03" y2="2563.4" gradientTransform="matrix(6.72 0 0 10.15 3566.84 -25762.45)" gradientUnits="userSpaceOnUse"><stop offset="0" stop-color="#db9a28"/><stop offset=".94" stop-color="#955c03"/><stop offset="1" stop-color="#905800"/></linearGradient><clipPath id="aO"><path fill="none" d="M192.82 223.94h1.71l.01-73.78-1.71-1.68-.01 75.46"/></clipPath><linearGradient id="aP" x1="-546.96" y1="2571.49" x2="-541.58" y2="2571.49" gradientTransform="matrix(0 -14.02 3.12 0 -7823.97 -7445.71)" xlink:href="#h"/><clipPath id="aQ"><path d="M215.28 303.35c-20-16.66-30.64-40.88-30.66-70.07v-28c0-20.15 0-40.82.05-61.78l-1.71-.75q-.08 45.21 0 90.53c0 29.43 10.59 54.2 31.29 71.38 18.45 15.58 75.25 40.53 90.8 47v-1.86c-19.76-8.28-72.54-32-89.71-46.47" fill="none"/></clipPath><linearGradient id="aR" data-name="Unbenannter Verlauf 48" x1="-534.01" y1="2534.92" x2="-528.63" y2="2534.92" gradientTransform="matrix(0 -38.83 25.49 0 -64381.39 -20381.97)" gradientUnits="userSpaceOnUse"><stop offset="0" stop-color="#c27913"/><stop offset=".3" stop-color="#db9a28"/><stop offset="1" stop-color="#c27913"/></linearGradient><clipPath id="aS"><path d="M395.24 229.1c-.16-7.42-4.23-11.43-14.48-17.51-19.3-11.45-22.86-20.93-22.91-33.57-.12-19.18 16.07-30.26 31.32-30.55 12.76-.24 21.29 4.72 25.31 7.92v20.4c-4.76-5.06-12.48-9.69-20.59-9.83-6.58-.12-13.45 2.78-13.66 11.2-.19 8.6 6.71 12 15.31 17.21C414.89 206 418.4 216.28 418 230c-.49 15-10.47 31.5-33.47 31.75a50.55 50.55 0 0 1-25.73-7.1q0-10.9.06-21.85c6 5.41 15 9.54 22.42 9.54 8.53 0 14.12-5 13.94-13.21m-95.79-61.3a21.11 21.11 0 0 1 8.42-1.7c13.82 0 19.55 11 19.58 37.73 0 26-6.57 38.58-20.28 38.58a22.6 22.6 0 0 1-7.72-1.44c.01-24.37.01-48.87.02-73.21zm0 141.9V260.4a37.85 37.85 0 0 0 10.71 1.32c26.34 0 41.52-23.74 41.52-58.49S336.07 147 307.7 147c-12.93 0-23.4 2.87-32 8.47-.12 51.42 0 103.81.2 154.13q11.8.09 23.59.1zm-69.8-68c4.75 0 8.54-1 11.08-2.8-.08-29.73-.06-59.65.09-89.27q11.71-.1 23.52-.15c-.12 34.16-.12 68.77 0 103-9 6.13-21.11 9.39-35.4 9.25-23.07-.24-34.39-13-34.44-37.83v-73.77q11.4-.16 23-.28c-.12 25-.16 50.12-.12 75.2.1 6.66 1.64 16.58 12.34 16.65z" fill="none"/></clipPath><radialGradient id="aT" data-name="Unbenannter Verlauf 49" cx="233.91" cy="2827.13" r="153.93" gradientTransform="matrix(1 0 0 -1 0 3002)" gradientUnits="userSpaceOnUse"><stop offset="0" stop-color="#ffe7b0"/><stop offset=".53" stop-color="#febf52"/><stop offset=".56" stop-color="#f9b94c"/><stop offset="1" stop-color="#da9017"/></radialGradient></defs><g clip-path="url(#i)"><path fill="url(#j)" d="M168.58 44.78h273.93v317.55H168.58z"/></g><g clip-path="url(#k)"><path fill="url(#l)" d="M181.37 72.12h250.09v282.07H181.37z"/></g><path d="M305 351.68l-90.8-47c18.44 15.58 75.22 40.52 90.8 47M438.9 233.17c0 16.4-2.9 31.49-8.59 44.87a94.62 94.62 0 0 1-26.87 35.91c-11.94 10.12-37.88 23.26-57.54 32.5-11.25 5.29-21.51 9.83-28.16 12.7-4 1.72-10.93 4.62-12.75 5.37v.94c1.83-.77 9.11-3.81 13.1-5.53 6.64-2.87 16.93-7.41 28.17-12.7 28.66-13.48 48.09-24.45 57.74-32.61a95.45 95.45 0 0 0 27.07-36.24c5.75-13.48 8.68-28.67 8.68-45.19V75l-.85.49v157.68M172 75c48.34-26.73 108.13-29.31 131.57-29.18h2.91c23.41-.11 83.2 2.47 131.52 29.18l.88.48.85-.49-1.33-.73C389.9 47.45 330 44.86 306.44 45h-2.89c-23.51-.13-83.47 2.46-132 29.28l-1.33.73.86.5.92-.51" fill="#3f1800"/><path d="M178.92 278.36A95.63 95.63 0 0 0 206 314.61c9.63 8.16 29 19.12 57.72 32.6 11.24 5.29 21.53 9.83 28.17 12.7 4 1.72 11.27 4.77 13.08 5.53v-.94c-1.81-.75-8.76-3.65-12.74-5.37-6.64-2.87-16.92-7.4-28.16-12.7-19.65-9.24-45.58-22.38-57.51-32.48A94.64 94.64 0 0 1 179.71 278c-5.69-13.38-8.58-28.47-8.58-44.87V75.46l-.86-.5v158.17c0 16.52 2.92 31.71 8.66 45.19M415.55 154l.63.51.86-.42-1-.77c-4.13-3.28-13.11-8.73-27-8.46v.85c13.58-.26 22.37 5.08 26.4 8.29M413.3 176.95c-4.16-4.4-11.43-9.17-19.4-9.31v.85c7.7.14 14.75 4.75 18.78 9l4.42 4.69-.85-2.14-2.95-3.13" fill="#3f1800"/><path d="M382 177.18h.84c.2-8 7.81-8.77 11.07-8.71v-.85c-2.73 0-11.7.49-11.92 9.55M416.25 180.08l.84 2.14-.06-28.08-.85.41.07 25.53M341.7 161.08c7.66 10 11.69 24.54 11.7 42.11h.85c0-17.76-4.1-32.51-11.88-42.62-8.08-10.53-20.06-16.09-34.67-16.11v.85c14.33 0 26.09 5.47 34 15.77M356.15 177.81a30.31 30.31 0 0 1 10.48-23.44 35.68 35.68 0 0 1 22.52-8.62v-.85a36.56 36.56 0 0 0-23 8.82 31.16 31.16 0 0 0-10.78 24.08v.2h.86v-.22M379.47 213.78l.43-.72c-19.8-11.74-23.69-21.74-23.75-35h-.86c.06 13.61 4 23.82 24.18 35.76" fill="#3f1800"/><path d="M394.62 191.77l1.85 1.11.43-.72-1.84-1.16c-8.13-4.84-12.36-7.65-12.23-13.85h-.84c-.16 7 4.92 10 12.63 14.59M384.57 263.44v.85c11.22-.11 20.57-4 27.06-11.18a36.25 36.25 0 0 0 8.95-23h-.86c-.54 16.43-11.62 33.13-35.15 33.39M379.9 213.06l-.43.72c10.25 6.11 13.1 9.39 13.22 15.37h.85c-.14-6.27-3.2-9.87-13.64-16.07" fill="#3f1800"/><path d="M390.69 237.23a10.82 10.82 0 0 0 2.86-7.75v-.35h-.85v.33a10 10 0 0 1-2.61 7.16c-2 2.06-5 3.13-8.78 3.13v.85c4 0 7.23-1.18 9.38-3.38M415.67 210.57c3.06 5.43 4.27 11.26 4 19.48h.86c.39-14.37-3.44-25.71-23.68-37.91l-.43.72c9.55 5.75 15.65 11.39 19.21 17.69M342.22 246.43c-7.65 11.09-18.73 16.95-32 17v.84c13.61 0 24.93-6 32.74-17.32 7.41-10.75 11.33-25.88 11.33-43.72h-.85c0 17.68-3.86 32.63-11.17 43.24M360 231.5c6.08 5.46 14.64 9.11 21.3 9.11v-.85c-6.47 0-14.8-3.56-20.72-8.88l-4.25-3.82.85 1.91 2.82 2.53M358 256.08l-.84-.49-.86.48 1.27.74a52.77 52.77 0 0 0 27 7.48v-.85a52 52 0 0 1-26.57-7.36" fill="#3f1800"/><path fill="#3f1800" d="M357.19 228.97l-.85-1.91-.08 29 .86-.48.07-26.61M302 169.54l-.86-.61v70.83l.86-.65v-69.57"/><path d="M302 239.11l-.86.65a21.39 21.39 0 0 0 6 .94v-.85a19.27 19.27 0 0 1-5.16-.74M320.94 232.08c3.18-6.08 4.79-15.57 4.79-28.25h-.84c0 12.54-1.57 21.91-4.7 27.86-2.94 5.55-7.07 8.17-13 8.17v.85c6.22 0 10.73-2.82 13.77-8.62M301.17 262.54l.85 1a45.3 45.3 0 0 0 8.16.65v-.84a43.81 43.81 0 0 1-9-.86M301.2 309.69v1.72l.85.84v-2.56-46.11l-.85-1v47.15M274.23 309.65c-.26-50.39-.33-102.27-.22-154.15v-.92l-.84-.46v1.38c-.12 51.89-.05 103.77.21 154.16v2.53l.83-.84v-1.69" fill="#3f1800"/><path fill="#3f1800" d="M273.4 311.34h28.67v.91H273.4zM266.09 149.5c-.13 33.93-.12 68.58 0 103v.9l.85.45v-1.35c-.1-34.43-.1-69.08 0-103v-2.58l-.85.87v1.71M265.32 253.93c-9.41 6.38-22 9.67-36.38 9.54v.85c14.56.14 27.31-3.2 36.86-9.68l1.13-.78-.85-.45-.75.52M239.09 238l-.86-.5a18.83 18.83 0 0 1-8.51 1.7v.8a19 19 0 0 0 9.38-2"/><path d="M238.17 205.18q0 16.18.06 32.32l.86.5q-.06-16.36-.06-32.82c0-18.57.05-37.15.13-55.54V148l-.84-.84v2.52c-.08 18.38-.14 37-.14 55.54M201.8 253.22c-6-6.6-9-16.47-9-29.29h-.8c0 13 3.06 23.09 9.2 29.87s15.57 10.39 27.76 10.51v-.85c-11.94-.13-21.07-3.56-27.14-10.24M221.08 235.09c1.72 3.29 4.55 4.91 8.62 4.94v-.85c-2.4 0-9.68-.09-9.72-14.12h-.85c0 4.19.66 7.56 1.94 10M191.97 147.63h.86v76.3h-.86z" fill="#3f1800"/><path d="M219.26 149.88c-.11 25.07-.16 50.38-.12 75.2h.86c0-24.82 0-50.13.11-75.2v-2.59l-.86.87v1.72M264.39 147.81l1.71-.01.85-.87-2.58.01-26.04.18.83.84 25.23-.15" fill="#3f1800"/><path fill="#3f1800" d="M191.97 147.29h28.16v1.19h-28.16zM307.87 168.65c6.1 0 10 2.29 12.7 7.47 2.9 5.6 4.31 14.65 4.32 27.71h.84c0-13.19-1.43-22.4-4.4-28.11-2.81-5.42-7.09-7.92-13.46-7.94v.86M307.87 168.65v-.86a20.59 20.59 0 0 0-6.72 1.15l.86.61a20 20 0 0 1 5.85-.9M273.18 154.11l.84.46.78-.5c9-5.89 19.8-8.75 32.91-8.75v-.85c-13.27 0-24.21 2.91-33.36 8.9l-1.16.75M303.46 83.55c-47.16 9.45-87.13 29.61-118.8 59.94l.85.37c31.51-30.08 71.24-50.1 118.1-59.49 35.24-7 74.74-8.17 120.66-3.51l.86-.78c-46.33-4.74-86.13-3.62-121.67 3.47M424.54 205.14v28.14c0 28.94-10.52 52.93-30.37 69.42-17.11 14.43-69.17 37.84-89.17 46.2v.92c19.74-8.26 72.45-31.89 89.71-46.47 20-16.65 30.64-40.88 30.68-70.07v-28.14c0-41.37-.09-83.31-.26-125l-.86.78c.17 41.47.26 83.15.26 124.27"/><path d="M215.83 302.69c-19.84-16.48-30.34-40.49-30.36-69.41v-28c0-20 0-40.58.06-61.41l-.85-.37c0 21-.05 41.64-.05 61.78v28c0 29.19 10.63 53.41 30.66 70.07 17.18 14.5 70 38.19 89.71 46.47v-.92c-20-8.4-72.16-31.86-89.16-46.21M306.44 44.13h-2.88C280 44 219.87 46.6 171.18 73.53l-1.79 1 .85.5 1.33-.73C220.08 47.45 280 44.86 303.55 45h2.89c23.53-.13 83.47 2.46 132 29.28l1.33.73.86-.51-1.78-1C390.14 46.6 330 44 306.44 44.13" fill="#3f1800"/><path d="M439.75 233.17c0 16.52-2.92 31.71-8.68 45.19A95.46 95.46 0 0 1 404 314.6c-9.65 8.17-29.08 19.13-57.74 32.61-11.24 5.29-21.52 9.83-28.17 12.7-4 1.72-11.27 4.77-13.1 5.53v.91c1.83-.77 9.44-3.94 13.44-5.66 6.65-2.89 16.94-7.42 28.2-12.71 28.7-13.51 48.19-24.53 57.9-32.73a96.05 96.05 0 0 0 27.34-36.56c5.78-13.58 8.72-28.89 8.73-45.53V74.49l-.86.51v158.17" fill="#3f1800"/><path d="M291.91 359.91c-6.64-2.87-16.93-7.41-28.17-12.7-28.67-13.48-48.08-24.45-57.72-32.6a95.63 95.63 0 0 1-27.1-36.25c-5.74-13.48-8.65-28.67-8.66-45.19V75l-.85-.5v158.68c0 16.64 2.94 31.95 8.73 45.53a96.14 96.14 0 0 0 27.33 36.56c9.71 8.21 29.19 19.22 57.9 32.73 11.25 5.29 21.55 9.82 28.19 12.71 4 1.72 11.62 4.89 13.43 5.66v-.91c-1.81-.77-9.1-3.81-13.08-5.54" fill="#3f1800"/><g clip-path="url(#m)"><path d="M390.09 236.64a10 10 0 0 0 2.61-7.16v-.33h-.86v.32a9.06 9.06 0 0 1-2.36 6.57c-1.84 1.88-4.67 2.85-8.17 2.85v.86c3.74 0 6.77-1.07 8.78-3.13" fill="#492300"/></g><g clip-path="url(#m)"><path fill="url(#n)" d="M381.31 229.15h11.39v10.62h-11.39z"/></g><path fill="#3f1800" d="M356.34 227.06l-.84-1.89-.09 31.37.85-.48.08-29"/><g clip-path="url(#o)"><path d="M420.58 230.07h.84c.41-14.68-3.48-26.25-24.08-38.68l-.44.73c20.24 12.2 24.07 23.54 23.68 37.91" fill="#70491c"/></g><g clip-path="url(#o)"><path fill="url(#a)" d="M396.9 191.43h24.94v38.68H396.9z"/></g><g clip-path="url(#p)"><path d="M357.53 256.8l-1.27-.74-.85.47 1.68 1a53.55 53.55 0 0 0 27.48 7.58v-.85a52.76 52.76 0 0 1-27-7.48m63.05-26.73h.84a36.94 36.94 0 0 1-9.15 23.56C405.61 261 396 265 384.57 265.13v-.85c11.22-.11 20.57-4 27.06-11.18a36.25 36.25 0 0 0 8.95-23.03z" fill="#492300"/></g><g clip-path="url(#p)"><path fill="url(#b)" d="M355.41 230.07h66v35.17h-66z"/></g><g clip-path="url(#q)"><path d="M360.59 230.88c5.92 5.32 14.25 8.88 20.72 8.88v-.86c-6.19 0-14.47-3.55-20.15-8.65l-5.66-5.09.84 1.9 4.25 3.82" fill="#663f0f"/></g><g clip-path="url(#q)"><path fill="url(#r)" d="M355.5 225.17h25.81v14.6H355.5z"/></g><g clip-path="url(#s)"><path d="M395.06 191l1.84 1.11.44-.73-1.85-1.11c-8.07-4.8-11.93-7.37-11.81-13.1h-.86c-.13 6.2 4.1 9 12.23 13.85" fill="#70491c"/></g><g clip-path="url(#s)"><path fill="url(#t)" d="M382.69 177.2h14.65v14.96h-14.65z"/></g><g clip-path="url(#u)"><path d="M220.11 149.88c-.12 25.07-.16 50.38-.11 75.2h.85c0-24.82 0-50.13.11-75.19v-3.46l-.84.86v2.59" fill="#9c7955"/></g><g clip-path="url(#u)"><path fill="url(#v)" d="M219.95 146.43h1.02v78.65h-1.02z"/></g><path d="M302.86 170.17l-.85-.63v69.57l.85-.67v-68.27" fill="#8a643e"/><path fill="#785228" d="M191.12 146.43h29.85v1.2h-29.85z"/><path d="M238.17 205.18c0-18.57.06-37.15.14-55.54v-2.52l-.85-.85v3.36c-.1 18.38-.14 37-.14 55.54v31.79l.85.53q0-16.12-.06-32.32" fill="#70491c"/><g clip-path="url(#w)"><path d="M229.71 239.19v-.86c-2.41 0-8.84-.06-8.87-13.26H220c0 14 7.32 14.09 9.72 14.11m0 0v-.86a18.59 18.59 0 0 0 7.65-1.37l.85.53a18.84 18.84 0 0 1-8.51 1.71z" fill="#532d00"/></g><g clip-path="url(#w)"><path fill="url(#x)" d="M219.99 225.08h18.23v14.14h-18.23z"/></g><path fill="#663f0f" d="M237.47 146.28l.86.84 26.04-.18 2.58-.01.85-.85-3.43.02-26.9.18"/><g clip-path="url(#y)"><path d="M265.79 254.64c-9.55 6.48-22.3 9.82-36.86 9.68v.85c14.74.13 27.67-3.26 37.35-9.84l1.5-1-.85-.45-1.13.78m-64.62-.83C195 247 192 237 192 223.94h-.85c0 13.26 3.15 23.5 9.43 30.43s15.94 10.67 28.38 10.8v-.85c-12.22-.12-21.56-3.66-27.79-10.51zm-10.05-107l.85.83v76.3h-.85z" fill="#815b33"/></g><g clip-path="url(#y)"><path fill="url(#z)" d="M191.12 146.8h76.65v118.5h-76.65z"/></g><path d="M266.94 149.5c-.12 33.93-.12 68.58 0 103v1.35l.85.45v-1.8c-.1-34.43-.1-69.08 0-103v-3.44l-.85.85v2.58" fill="#8a643e"/><g clip-path="url(#A)"><path d="M379.47 213.78l-.44.74c9.94 5.91 12.7 9 12.81 14.65h.86c-.13-6-3-9.26-13.22-15.37m0 0l-.44.74c-9.75-5.79-16.05-11.34-19.85-17.48-3.28-5.35-4.69-11-4.73-19h.85c.04 13.58 4.01 23.79 24.16 35.72z" fill="#492300"/></g><g clip-path="url(#A)"><path fill="url(#B)" d="M354.44 178.03h38.25v51.14h-38.25z"/></g><path d="M273.38 309.65c-.26-50.39-.33-102.27-.21-154.16v-1.38l-.85-.47v1.84c-.12 51.89-.06 103.78.21 154.17v3.37l.85-.85v-2.53" fill="#532d00"/><g clip-path="url(#C)"><path d="M319.43 231.28c-2.76 5.26-6.65 7.71-12.27 7.71v.86c6 0 10.08-2.61 13-8.17 3.13-5.94 4.69-15.32 4.7-27.86H324c0 12.4-1.56 21.64-4.61 27.45M307.16 239v.86a19.33 19.33 0 0 1-5.16-.74l.85-.67a17.42 17.42 0 0 0 4.31.55z" fill="#492300"/></g><g clip-path="url(#C)"><path fill="url(#d)" d="M302.02 203.83h22.88v36.02h-22.88z"/></g><g clip-path="url(#D)"><path d="M307.87 168.65v.85c5.73 0 9.43 2.16 11.94 7 2.84 5.46 4.22 14.4 4.23 27.32h.85c0-13.06-1.42-22.11-4.32-27.71-2.68-5.18-6.6-7.47-12.7-7.47m-5 1.53l-.85-.63a20 20 0 0 1 5.85-.9v.85a19.32 19.32 0 0 0-5.01.68z" fill="#492300"/></g><g clip-path="url(#D)"><path fill="url(#E)" d="M302.02 168.65h22.88v35.18h-22.88z"/></g><path fill="#8a643e" d="M272.55 312.18h30.37v.93h-30.37z"/><g clip-path="url(#F)"><path d="M274.34 153.36c9.16-6 20.09-8.9 33.36-8.9v-.85c-13.45 0-24.52 2.94-33.84 9l-1.54 1 .85.47 1.16-.75m33.36-9.75v.85c14.6 0 26.59 5.58 34.67 16.11 7.77 10.12 11.88 24.86 11.88 42.62h.86c0-18-4.18-32.88-12.05-43.15-8.24-10.71-20.46-16.39-35.35-16.4zm-5.68 120l.85 1a50.2 50.2 0 0 0 7.31.5v-.86a45.3 45.3 0 0 1-8.17-.64zm52.22-60.39h.86c0 18-4 33.31-11.49 44.22-8 11.56-19.54 17.68-33.44 17.68v-.86c13.61 0 24.93-6 32.74-17.32 7.42-10.75 11.35-25.91 11.35-43.72z" fill="#3e1700"/></g><g clip-path="url(#F)"><path fill="url(#c)" d="M272.33 143.61h82.78v121.48h-82.78z"/></g><path fill="#8a643e" d="M417.09 182.22l.87 2.15-.08-30.65-.85.42.06 28.08"/><g clip-path="url(#G)"><path d="M412.67 177.53c-4-4.29-11.08-8.91-18.78-9v.85c7.44.13 14.27 4.62 18.19 8.78l5.9 6.25-.87-2.14-4.42-4.69m-18.78-9v.85a12.38 12.38 0 0 0-7.24 1.81c-1.93 1.31-2.88 3.31-3 6.07h-.86c.19-8.15 7.82-8.88 11.09-8.82z" fill="#3e1700"/></g><g clip-path="url(#G)"><path fill="url(#H)" d="M382.82 168.43h35.14v15.94h-35.14z"/></g><g clip-path="url(#I)"><path d="M354.44 177.83v.17h.85v-.22a31.16 31.16 0 0 1 10.78-24.08 36.56 36.56 0 0 1 23-8.82v-.85a37.51 37.51 0 0 0-23.62 9 32.38 32.38 0 0 0-11.05 24.73m34.67-32.92v-.85c14.11-.27 23.29 5.3 27.5 8.66l1.27 1-.85.42-1-.77c-4.04-3.21-12.99-8.66-26.87-8.39z" fill="#492300"/></g><g clip-path="url(#I)"><path fill="url(#J)" d="M354.44 143.79h63.44v34.25h-63.44z"/></g><path d="M302.06 309.69v2.56l.86.86v-48.52l-.85-1v46.11" fill="#785228"/><g clip-path="url(#K)"><path d="M303.79 85.22c35-7 74.13-8.13 119.65-3.58l.85-.76c-45.92-4.66-85.42-3.52-120.66 3.51-46.87 9.39-86.59 29.4-118.1 59.49l.86.37c31.35-29.83 70.84-49.69 117.41-59" fill="#8c6741"/></g><g clip-path="url(#K)"><path fill="url(#L)" d="M185.51 76.21h238.77v68.03H185.51z"/></g><path d="M423.69 205.14v28.14c0 28.67-10.41 52.44-30.07 68.77-16.93 14.28-68.46 37.46-88.62 45.95v.94c20-8.37 72.07-31.77 89.16-46.21 19.85-16.49 30.34-40.48 30.37-69.42v-28.14c0-41.12-.08-82.79-.26-124.27l-.85.76c.17 41.24.25 82.64.25 123.51" fill="#3f1800"/><g clip-path="url(#M)"><path d="M185.47 233.28c0 28.92 10.52 52.93 30.36 69.41C232.83 317 285 340.51 305 348.9v-.9c-20.19-8.49-71.78-31.72-88.62-45.94-19.64-16.31-30-40.1-30.06-68.75v-28c0-19.9 0-40.34.07-61l-.86-.37c0 20.83-.06 41.38-.06 61.41v28" fill="#492300"/></g><g clip-path="url(#M)"><path fill="url(#N)" d="M185.46 143.87H305v205.04H185.46z"/></g><path d="M345.9 346.44c19.65-9.24 45.59-22.38 57.54-32.5A94.61 94.61 0 0 0 430.31 278c5.69-13.38 8.59-28.47 8.59-44.87V75.49l-1.7 1v156.68c0 31.72-10.93 59.61-34.85 79.48-22.86 19.35-97.55 50.2-97.37 50v1.85c1.83-.75 8.78-3.65 12.75-5.37 6.65-2.87 16.91-7.4 28.16-12.7" fill="#905800"/><g clip-path="url(#O)"><path d="M207.65 312.64c-23.9-19.87-34.83-47.75-34.83-79.48V76.49l-1.71-1v157.67c0 16.4 2.89 31.49 8.58 44.87A94.64 94.64 0 0 0 206.57 314c11.94 10.1 37.86 23.24 57.51 32.48 11.24 5.29 21.52 9.83 28.16 12.7 4 1.72 10.94 4.62 12.74 5.37v-1.85c.21.18-74.48-30.66-97.34-50" fill="#ffd568"/></g><g clip-path="url(#O)"><path fill="url(#P)" d="M171.1 75.49h134.1V364.5H171.1z"/></g><path d="M305 47.53c-.18.27 74.19-3.09 132.21 29l1.7-1L438 75c-48.33-26.71-108.11-29.29-131.54-29.16h-2.91C280.11 45.71 220.32 48.29 172 75l-.88.48 1.71 1c58-32.07 132.4-28.7 132.19-29" fill="#ffd568"/><g clip-path="url(#Q)"><path d="M380.28 177.14h1.7c.22-9.05 9.19-9.59 11.92-9.55v-1.69c-6.58-.13-13.46 2.78-13.66 11.2" fill="#905800"/></g><g clip-path="url(#Q)"><path fill="url(#f)" d="M380.28 165.81h13.66v11.37h-13.66z"/></g><g clip-path="url(#R)"><path d="M389.17 147.46v-1.71a35.68 35.68 0 0 0-22.52 8.62 30.31 30.31 0 0 0-10.48 23.44v.19h1.71c-.13-19.18 16.06-30.26 31.3-30.55" fill="#efcb95"/></g><g clip-path="url(#R)"><path fill="url(#S)" d="M356.15 145.75h33.02v32.28h-33.02z"/></g><g clip-path="url(#T)"><path d="M393.94 165.94v1.69c8 .14 15.24 4.91 19.4 9.31l2.95 3.13-1.71-4.3c-4.76-5.06-12.49-9.71-20.59-9.84" fill="#905800"/></g><g clip-path="url(#T)"><path fill="url(#U)" d="M393.9 165.94h22.34v14.14H393.9z"/></g><g clip-path="url(#V)"><path d="M414.49 155.38l1.69-.82-.63-.51c-4-3.21-12.82-8.55-26.4-8.29v1.71c12.78-.24 21.29 4.71 25.32 7.92" fill="#e2ab53"/></g><g clip-path="url(#V)"><path fill="url(#W)" d="M389.15 145.49h27.03v9.88h-27.03z"/></g><path d="M414.53 175.79l1.71 4.3-.07-25.53-1.69.82v20.41" fill="#905800"/><g clip-path="url(#X)"><path d="M395.59 194.35l.88-1.47-1.85-1.11c-7.71-4.59-12.79-7.6-12.63-14.59h-1.7c-.2 8.61 6.7 12 15.31 17.21" fill="#ddac72"/></g><g clip-path="url(#X)"><path fill="url(#Y)" d="M380.08 177.14h16.39v17.21h-16.39z"/></g><g clip-path="url(#Z)"><path d="M393.54 229.13h1.7c-.16-7.42-4.24-11.43-14.48-17.5l-.86 1.46c10.45 6.2 13.5 9.8 13.64 16.07" fill="#eabd79"/></g><g clip-path="url(#Z)"><path fill="url(#e)" d="M379.9 211.6h15.34v17.53H379.9z"/></g><g clip-path="url(#aa)"><path d="M358.82 254.62l-1.7 1 .84.49a52 52 0 0 0 26.61 7.36v-1.71a50.41 50.41 0 0 1-25.73-7.11" fill="#c27913"/></g><g clip-path="url(#aa)"><path fill="url(#g)" d="M357.12 254.62h27.45v8.9h-27.45z"/></g><path d="M358.88 232.78l-1.69-3.8-.07 26.61 1.7-1q.06-10.9.06-21.84" fill="#edc68c"/><g clip-path="url(#ab)"><path d="M357.86 178h-1.71c.06 13.29 4 23.3 23.75 35l.86-1.46c-19.31-11.45-22.86-20.93-22.9-33.59" fill="#efcb95"/></g><g clip-path="url(#ab)"><path fill="url(#ac)" d="M356.15 178.01h24.62v35.05h-24.62z"/></g><g clip-path="url(#ad)"><path d="M381.31 242.32v-1.7c-6.67 0-15.22-3.65-21.3-9.11l-2.82-2.51 1.69 3.8c6 5.42 15 9.54 22.43 9.54" fill="#eabd79"/></g><g clip-path="url(#ad)"><path fill="url(#ae)" d="M357.19 228.97h24.12v13.35h-24.12z"/></g><g clip-path="url(#af)"><path d="M384.55 261.73v1.71c23.53-.26 34.61-17 35.15-33.39L418 230c-.5 15-10.47 31.52-33.48 31.76" fill="#905800"/></g><g clip-path="url(#af)"><path fill="url(#ag)" d="M384.55 229.97h35.17v33.47h-35.17z"/></g><g><g clip-path="url(#ah)"><path d="M395.25 229.1h-1.7v.35a10.82 10.82 0 0 1-2.86 7.75c-2.16 2.21-5.41 3.38-9.38 3.38v1.7c8.52 0 14.11-5 13.94-13.22" fill="#eabd79"/></g><g clip-path="url(#ah)"><path fill="url(#ai)" d="M381.31 229.1h14.12v13.22h-14.12z"/></g></g><g><g clip-path="url(#aj)"><path d="M418 230l1.69.07c.22-8.22-1-14-4-19.48-3.55-6.3-9.66-11.93-19.21-17.69l-.88 1.47C414.9 206 418.4 216.3 418 230" fill="#ddac72"/></g><g clip-path="url(#aj)"><path fill="url(#ak)" d="M395.59 192.88h24.35v37.16h-24.35z"/></g></g><g><g clip-path="url(#al)"><path d="M307.87 167.79c6.37 0 10.65 2.52 13.46 7.94 3 5.71 4.4 14.91 4.4 28.11h1.71c0-26.71-5.77-37.73-19.58-37.73v1.69" fill="#eabd79"/></g><g clip-path="url(#al)"><path fill="url(#am)" d="M307.87 166.09h19.58v37.74h-19.58z"/></g></g><g><g clip-path="url(#an)"><path d="M307.87 167.79v-1.69a21 21 0 0 0-8.42 1.71l1.71 1.13a20.56 20.56 0 0 1 6.72-1.15" fill="#905800"/></g><g clip-path="url(#an)"><path fill="url(#ao)" d="M299.45 166.09h8.42v2.84h-8.42z"/></g></g><g><g clip-path="url(#ap)"><path d="M310.18 261.68v1.72c13.31 0 24.39-5.88 32-17 7.31-10.6 11.17-25.56 11.17-43.24h-1.7c0 34.75-15.18 58.47-41.52 58.49" fill="#905800"/></g><g clip-path="url(#ap)"><path fill="url(#aq)" d="M310.18 203.19h43.22v60.21h-43.22z"/></g></g><g><g clip-path="url(#ar)"><path d="M274.23 309.65v1.69l1.7-1.7c-.26-50.33-.32-102.73-.22-154.14l-1.69-.92v.92c-.11 51.88 0 103.76.22 154.15" fill="#e0b27c"/></g><g clip-path="url(#ar)"><path fill="url(#as)" d="M273.9 154.57h2.03v156.77h-2.03z"/></g></g><g><g clip-path="url(#at)"><path d="M301.15 168.93l-1.71-1.13v73.17l1.7-1.21v-70.83" fill="#905800"/></g><g clip-path="url(#at)"><path fill="url(#au)" d="M299.45 167.8h1.71v73.17h-1.71z"/></g></g><g><g clip-path="url(#av)"><path d="M351.7 203.19h1.7c0-17.58-4-32.13-11.7-42.11-7.91-10.3-19.66-15.75-34-15.76V147c28.38 0 44 21.51 44 56.17" fill="#edc68c"/></g><g clip-path="url(#av)"><path fill="url(#aw)" d="M307.7 145.31h45.7v57.88h-45.7z"/></g></g><g><g clip-path="url(#ax)"><path d="M307.7 147v-1.71c-13.1 0-23.87 2.86-32.91 8.75l-.78.5 1.69.92c8.59-5.6 19-8.47 32-8.47" fill="#ffecc0"/></g><g clip-path="url(#ax)"><path fill="url(#ay)" d="M274.02 145.31h33.68v10.18h-33.68z"/></g></g><g><g clip-path="url(#az)"><path d="M299.46 260.36l1.71 2.18a43.73 43.73 0 0 0 9 .86v-1.72a37.24 37.24 0 0 1-10.72-1.32" fill="#905800"/></g><g clip-path="url(#az)"><path fill="url(#aA)" d="M299.46 260.36h10.72v3.04h-10.72z"/></g></g><g><g clip-path="url(#aB)"><path d="M299.5 309.69l1.72 1.72v-1.72-47.15l-1.71-2.18v49.33" fill="#905800"/></g><g clip-path="url(#aB)"><path fill="url(#aC)" d="M299.46 260.36h1.75v51.05h-1.75z"/></g></g><path d="M275.93 309.64l-1.7 1.7 27 .07-1.72-1.72q-11.79 0-23.57-.05" fill="#905800"/><g><g clip-path="url(#aD)"><path d="M325.73 203.83h1.71c0 26-6.56 38.58-20.27 38.59v-1.72c6.22 0 10.73-2.82 13.77-8.62 3.19-6.07 4.79-15.56 4.79-28.25" fill="#ffe4a2"/></g><g clip-path="url(#aD)"><path fill="url(#aE)" d="M307.17 203.82h20.27v38.59h-20.27z"/></g></g><path d="M307.17 240.7a21.39 21.39 0 0 1-6-.94l-1.7 1.21a22.67 22.67 0 0 0 7.72 1.43v-1.7" fill="#ffe4a2"/><g><g clip-path="url(#aF)"><path d="M240.87 149.66l-1.71-1.7v1.68c-.08 18.38-.13 37-.13 55.54q0 16.44.06 32.82l1.69 1c-.08-29.75 0-59.68.09-89.29" fill="#db9a28"/></g><g clip-path="url(#aF)"><path fill="url(#aG)" d="M239.03 147.96h1.84v90.99h-1.84z"/></g></g><g><g clip-path="url(#aH)"><path d="M264.37 252.51l1.71.9v-.9c-.09-34.43-.11-69.08 0-103v-1.71l-1.71 1.71c-.13 34.16-.13 68.78 0 103" fill="#c27913"/></g><g clip-path="url(#aH)"><path fill="url(#aI)" d="M264.26 147.8h1.84v105.61h-1.84z"/></g></g><path d="M264.39 149.5l1.71-1.71h-1.71l-25.22.16 1.71 1.7q11.71-.1 23.52-.16" fill="#f7e4ca"/><g><g clip-path="url(#aJ)"><path d="M229 261.76v1.71c14.4.14 27-3.15 36.38-9.54l.75-.51-1.71-.9c-9 6.13-21.12 9.38-35.4 9.25" fill="#905800"/></g><g clip-path="url(#aJ)"><path fill="url(#aK)" d="M228.94 252.51h37.13v11.09h-37.13z"/></g></g><g clip-path="url(#aL)"><path d="M229.7 241.73c4.75 0 8.54-1 11.08-2.78l-1.69-1a19 19 0 0 1-9.38 2v1.69m0 0V240c-4.07 0-6.9-1.65-8.62-4.94-1.28-2.45-1.93-5.82-1.94-10h-1.7c0 6.69 1.55 16.6 12.25 16.67zm-12.14-91.85l1.71-1.72v1.72c-.11 25.07-.16 50.38-.12 75.2h-1.7c-.07-24.99-.02-50.12.09-75.11z" fill="url(#aM)"/></g><g><g clip-path="url(#aN)"><path d="M194.54 223.94h-1.71c0 12.82 3 22.69 9 29.29s15.2 10.11 27.14 10.24v-1.71c-23.07-.24-34.39-13-34.43-37.82" fill="#db9a28"/></g><g clip-path="url(#aN)"><path fill="url(#h)" d="M192.82 223.94h36.14v39.53h-36.14z"/></g></g><path d="M217.55 149.88l1.71-1.72-26.44.32 1.71 1.68q11.4-.16 23-.28" fill="#faefe1"/><g><g clip-path="url(#aO)"><path fill="#db9a28" d="M192.82 148.48h1.71v75.46h-1.71z"/></g><g clip-path="url(#aO)"><path fill="url(#aP)" d="M192.82 148.48h1.71v75.46h-1.71z"/></g></g><path d="M303.46 83.55c35.54-7.09 75.34-8.21 121.68-3.45l1.7-1.55c-38.68-4.07-81.3-5.14-123.72 3.32S218.64 108.36 183 142.75l1.71.75c31.62-30.34 71.59-50.5 118.75-59.95" fill="#c27913"/><path d="M425.14 80.1c.17 41.74.26 83.67.26 125v28.14c0 29.19-10.64 53.42-30.68 70.07-17.26 14.58-70 38.22-89.71 46.47v1.86c15.58-6.49 72.36-31.44 90.81-47 20.69-17.18 31.26-42 31.28-71.38 0-51.65 0-103.4-.25-154.73l-1.7 1.55" fill="#ffd568"/><g><g clip-path="url(#aQ)"><path d="M215.28 303.35c-20-16.66-30.64-40.88-30.66-70.07v-28c0-20.15 0-40.82.05-61.78l-1.71-.75q-.08 45.21 0 90.53c0 29.43 10.59 54.2 31.29 71.38 18.45 15.58 75.25 40.53 90.8 47v-1.86c-19.76-8.28-72.54-32-89.71-46.47" fill="#c27913"/></g><g clip-path="url(#aQ)"><path fill="url(#aR)" d="M182.88 142.75H305v208.94H182.88z"/></g></g><g><g clip-path="url(#aS)"><path d="M395.24 229.1c-.16-7.42-4.23-11.43-14.48-17.51-19.3-11.45-22.86-20.93-22.91-33.57-.12-19.18 16.07-30.26 31.32-30.55 12.76-.24 21.29 4.72 25.31 7.92v20.4c-4.76-5.06-12.48-9.69-20.59-9.83-6.58-.12-13.45 2.78-13.66 11.2-.19 8.6 6.71 12 15.31 17.21C414.89 206 418.4 216.28 418 230c-.49 15-10.47 31.5-33.47 31.75a50.55 50.55 0 0 1-25.73-7.1q0-10.9.06-21.85c6 5.41 15 9.54 22.42 9.54 8.53 0 14.12-5 13.94-13.21m-95.79-61.3a21.11 21.11 0 0 1 8.42-1.7c13.82 0 19.55 11 19.58 37.73 0 26-6.57 38.58-20.28 38.58a22.6 22.6 0 0 1-7.72-1.44c.01-24.37.01-48.87.02-73.21zm0 141.9V260.4a37.85 37.85 0 0 0 10.71 1.32c26.34 0 41.52-23.74 41.52-58.49S336.07 147 307.7 147c-12.93 0-23.4 2.87-32 8.47-.12 51.42 0 103.81.2 154.13q11.8.09 23.59.1zm-69.8-68c4.75 0 8.54-1 11.08-2.8-.08-29.73-.06-59.65.09-89.27q11.71-.1 23.52-.15c-.12 34.16-.12 68.77 0 103-9 6.13-21.11 9.39-35.4 9.25-23.07-.24-34.39-13-34.44-37.83v-73.77q11.4-.16 23-.28c-.12 25-.16 50.12-.12 75.2.1 6.66 1.64 16.58 12.34 16.65z" fill="#da9017"/></g><g clip-path="url(#aS)"><path fill="url(#aT)" d="M193.97 146.95h224.88v163.62H193.97z"/></g></g><path d="M392.49 366.36v-10.72L389 366.36h-2.07l-3.45-10.71v10.71h-2.66v-15.19h3.54L388 362.6l3.67-11.42h3.59v15.18h-2.75m-17.63-12.9v12.9H372v-12.9h-3.85v-2.28h10.55v2.28z" fill="#905800"/></svg>
